<svg xmlns="http://www.w3.org/2000/svg"  viewBox="0 0 50 50" width="100px" height="100px"><path d="M 9.875 3 C 9.472656 3.046875 9.140625 3.332031 9.03125 3.71875 C 9.03125 3.71875 8.40625 5.867188 8.15625 8.625 C 7.925781 11.164063 8.035156 14.242188 9.375 16.84375 C 6.824219 19.679688 5.1875 22 5.1875 22 C 4.992188 22.3125 4.984375 22.707031 5.167969 23.027344 C 5.347656 23.347656 5.695313 23.542969 6.0625 23.53125 L 6.84375 23.5 C 6.324219 24.46875 5.761719 25.375 5.375 26.5625 C 5.265625 26.886719 5.332031 27.246094 5.546875 27.511719 C 5.761719 27.777344 6.097656 27.914063 6.4375 27.875 L 8.59375 27.65625 C 8.148438 28.492188 7.660156 29.453125 7.59375 30.5 C 7.570313 30.8125 7.691406 31.117188 7.921875 31.324219 C 8.15625 31.535156 8.472656 31.621094 8.78125 31.5625 C 8.664063 31.585938 8.878906 31.546875 9.125 31.5625 C 9.371094 31.578125 9.710938 31.597656 10.09375 31.65625 C 10.863281 31.773438 11.839844 31.980469 12.78125 32.28125 C 13.722656 32.582031 14.628906 32.976563 15.28125 33.4375 C 15.933594 33.898438 16.292969 34.375 16.375 34.84375 C 16.941406 38.039063 17.402344 41.238281 18.09375 43.3125 C 18.539063 44.644531 19.671875 45.542969 20.9375 46.125 C 22.203125 46.707031 23.644531 47 25 47 C 26.355469 47 27.800781 46.707031 29.0625 46.125 C 30.324219 45.542969 31.460938 44.644531 31.90625 43.3125 C 32.597656 41.238281 33.058594 38.039063 33.625 34.84375 C 33.707031 34.375 34.066406 33.898438 34.71875 33.4375 C 35.371094 32.976563 36.277344 32.582031 37.21875 32.28125 C 38.160156 31.980469 39.136719 31.773438 39.90625 31.65625 C 40.289063 31.597656 40.628906 31.578125 40.875 31.5625 C 41.121094 31.546875 41.335938 31.585938 41.21875 31.5625 C 41.527344 31.621094 41.84375 31.535156 42.078125 31.324219 C 42.308594 31.117188 42.429688 30.8125 42.40625 30.5 C 42.339844 29.453125 41.851563 28.492188 41.40625 27.65625 L 43.5625 27.875 C 43.894531 27.910156 44.222656 27.777344 44.4375 27.519531 C 44.648438 27.261719 44.722656 26.914063 44.625 26.59375 C 44.351563 25.605469 43.835938 24.433594 43.34375 23.5 L 43.9375 23.53125 C 44.304688 23.542969 44.652344 23.347656 44.832031 23.027344 C 45.015625 22.707031 45.007813 22.3125 44.8125 22 C 44.8125 22 43.175781 19.679688 40.625 16.84375 C 41.964844 14.242188 42.074219 11.164063 41.84375 8.625 C 41.59375 5.867188 40.96875 3.71875 40.96875 3.71875 C 40.878906 3.414063 40.65625 3.171875 40.359375 3.0625 C 40.0625 2.949219 39.734375 2.984375 39.46875 3.15625 L 31.90625 8.03125 C 31.304688 7.855469 28.296875 7 25 7 C 21.703125 7 18.699219 7.855469 18.09375 8.03125 L 10.53125 3.15625 C 10.335938 3.03125 10.105469 2.972656 9.875 3 Z M 10.5 6.59375 C 11.503906 8.039063 12.871094 10.226563 13.71875 12.53125 C 12.351563 13.847656 11.511719 14.6875 10.84375 15.34375 C 10.058594 13.375 9.964844 10.898438 10.15625 8.78125 C 10.253906 7.710938 10.382813 7.101563 10.5 6.59375 Z M 39.5 6.59375 C 39.617188 7.101563 39.746094 7.710938 39.84375 8.78125 C 40.035156 10.898438 39.941406 13.375 39.15625 15.34375 C 38.488281 14.6875 37.648438 13.847656 36.28125 12.53125 C 37.128906 10.226563 38.496094 8.039063 39.5 6.59375 Z M 13.5 7.4375 L 17.40625 9.9375 C 17.648438 10.09375 17.941406 10.140625 18.21875 10.0625 C 18.21875 10.0625 21.785156 9 25 9 C 28.214844 9 31.78125 10.0625 31.78125 10.0625 C 32.058594 10.140625 32.351563 10.09375 32.59375 9.9375 L 36.5 7.4375 C 35.617188 8.882813 34.703125 10.613281 34.125 12.40625 C 34.003906 12.769531 34.101563 13.171875 34.375 13.4375 C 36.410156 15.375 38.75 17.71875 38.75 17.71875 C 38.769531 17.742188 38.789063 17.761719 38.8125 17.78125 C 38.824219 17.792969 38.832031 17.800781 38.84375 17.8125 C 38.851563 17.832031 38.863281 17.855469 38.875 17.875 C 40.796875 19.945313 41.21875 20.613281 41.8125 21.4375 L 41.59375 21.4375 C 41.230469 21.421875 40.886719 21.609375 40.695313 21.917969 C 40.507813 22.230469 40.503906 22.621094 40.6875 22.9375 C 40.6875 22.9375 41.441406 24.460938 42.03125 25.6875 L 40.125 25.5 C 39.8125 25.054688 39.121094 24.125 37.96875 23 C 36.488281 21.554688 34.433594 20 32 20 C 28.660156 20 26.558594 22.070313 25.4375 24 C 25.277344 24.277344 25.128906 24.542969 25 24.8125 C 24.875 24.546875 24.75 24.273438 24.59375 24 C 23.480469 22.066406 21.363281 20 18 20 C 15.566406 20 13.511719 21.554688 12.03125 23 C 10.878906 24.125 10.1875 25.054688 9.875 25.5 L 8 25.6875 C 8.589844 24.460938 9.3125 22.9375 9.3125 22.9375 C 9.496094 22.621094 9.492188 22.230469 9.304688 21.917969 C 9.113281 21.609375 8.769531 21.421875 8.40625 21.4375 L 8.1875 21.4375 C 8.773438 20.621094 9.183594 19.933594 11.0625 17.90625 C 11.082031 17.898438 11.105469 17.886719 11.125 17.875 C 11.136719 17.863281 11.144531 17.855469 11.15625 17.84375 C 11.191406 17.804688 11.222656 17.761719 11.25 17.71875 C 11.25 17.71875 11.28125 17.6875 11.28125 17.6875 C 11.304688 17.667969 11.324219 17.648438 11.34375 17.625 C 11.488281 17.476563 13.65625 15.308594 15.625 13.4375 C 15.898438 13.171875 15.996094 12.769531 15.875 12.40625 C 15.296875 10.613281 14.382813 8.882813 13.5 7.4375 Z M 18 22 C 20.574219 22 21.972656 23.433594 22.875 25 C 23.777344 26.566406 24 28.15625 24 28.15625 C 24.015625 28.289063 24.058594 28.414063 24.125 28.53125 C 24.144531 28.5625 24.164063 28.59375 24.1875 28.625 C 24.273438 28.726563 24.378906 28.8125 24.5 28.875 C 24.558594 28.914063 24.621094 28.945313 24.6875 28.96875 C 24.808594 29.003906 24.9375 29.011719 25.0625 29 C 25.074219 29 25.082031 29 25.09375 29 C 25.125 29 25.15625 29 25.1875 29 C 25.25 28.984375 25.316406 28.964844 25.375 28.9375 C 25.40625 28.929688 25.4375 28.917969 25.46875 28.90625 C 25.5 28.886719 25.53125 28.867188 25.5625 28.84375 C 25.675781 28.769531 25.769531 28.675781 25.84375 28.5625 C 25.867188 28.53125 25.886719 28.5 25.90625 28.46875 C 25.917969 28.457031 25.925781 28.449219 25.9375 28.4375 C 25.9375 28.425781 25.9375 28.417969 25.9375 28.40625 C 25.9375 28.394531 25.9375 28.386719 25.9375 28.375 C 25.949219 28.34375 25.960938 28.3125 25.96875 28.28125 C 25.980469 28.242188 25.992188 28.199219 26 28.15625 C 26 28.136719 26 28.113281 26 28.09375 C 26.015625 28.003906 26.273438 26.523438 27.15625 25 C 28.066406 23.429688 29.453125 22 32 22 C 33.515625 22 35.25 23.15625 36.5625 24.4375 C 37.875 25.71875 38.71875 27 38.71875 27 C 38.730469 27.011719 38.738281 27.019531 38.75 27.03125 C 38.777344 27.074219 38.808594 27.117188 38.84375 27.15625 C 38.945313 27.3125 39.214844 27.738281 39.5625 28.375 C 39.800781 28.8125 39.871094 29.207031 40.03125 29.65625 C 39.890625 29.671875 39.78125 29.664063 39.625 29.6875 C 38.761719 29.816406 37.695313 30.035156 36.625 30.375 C 35.554688 30.714844 34.472656 31.171875 33.5625 31.8125 C 32.652344 32.453125 31.863281 33.335938 31.65625 34.5 C 31.082031 37.730469 30.574219 40.964844 30 42.6875 C 29.8125 43.253906 29.171875 43.871094 28.21875 44.3125 C 27.265625 44.753906 26.050781 45 25 45 C 23.949219 45 22.742188 44.753906 21.78125 44.3125 C 20.820313 43.871094 20.1875 43.253906 20 42.6875 C 19.425781 40.964844 18.917969 37.730469 18.34375 34.5 C 18.136719 33.335938 17.347656 32.453125 16.4375 31.8125 C 15.527344 31.171875 14.445313 30.714844 13.375 30.375 C 12.304688 30.035156 11.238281 29.816406 10.375 29.6875 C 10.21875 29.664063 10.109375 29.671875 9.96875 29.65625 C 10.128906 29.207031 10.199219 28.8125 10.4375 28.375 C 10.765625 27.773438 11.003906 27.371094 11.125 27.1875 C 11.171875 27.140625 11.214844 27.085938 11.25 27.03125 C 11.261719 27.019531 11.269531 27.011719 11.28125 27 C 11.28125 27 11.308594 26.941406 11.3125 26.9375 C 11.367188 26.855469 12.171875 25.671875 13.4375 24.4375 C 14.75 23.15625 16.484375 22 18 22 Z M 18 27 C 18 27 19.210938 30.175781 21.15625 31.90625 C 21.15625 31.90625 21.898438 28.9375 21.25 28.21875 C 20.601563 27.496094 18 27 18 27 Z M 32 27 C 32 27 29.398438 27.496094 28.75 28.21875 C 28.101563 28.9375 28.84375 31.90625 28.84375 31.90625 C 30.789063 30.175781 32 27 32 27 Z M 25 40 C 22.449219 40 21 41 21 41 C 21 41 21.824219 44 25 44 C 28.175781 44 29 41 29 41 C 29 41 27.550781 40 25 40 Z"/></svg>